<?xml version="1.0" standalone="no"?>
<!DOCTYPE svg PUBLIC "-//W3C//DTD SVG 20010904//EN"
 "http://www.w3.org/TR/2001/REC-SVG-20010904/DTD/svg10.dtd">
<svg version="1.0" xmlns="http://www.w3.org/2000/svg"
 width="700.000000pt" height="700.000000pt" viewBox="0 0 700.000000 700.000000"
 preserveAspectRatio="xMidYMid meet">
<metadata>
Created by potrace 1.11, written by Peter Selinger 2001-2013
</metadata>
<g transform="translate(0.000000,700.000000) scale(0.100000,-0.100000)"
fill="#000000" stroke="none">
<path d="M0 3500 l0 -3500 3500 0 3500 0 0 3500 0 3500 -3500 0 -3500 0 0
-3500z m4329 2899 c27 -6 68 -23 89 -39 45 -32 92 -117 92 -166 l0 -32 118
-12 c64 -7 240 -26 390 -44 253 -29 272 -30 278 -14 3 9 21 31 40 47 29 26 43
31 87 31 92 0 147 -57 147 -153 l0 -45 158 -113 c154 -111 587 -430 728 -536
l72 -54 37 25 c45 31 87 40 165 34 74 -5 131 -42 173 -110 74 -120 28 -302
-90 -359 l-50 -24 -6 -215 c-4 -118 -7 -450 -7 -736 l0 -522 24 -15 c12 -9 30
-31 40 -50 32 -69 15 -151 -43 -200 -42 -35 -124 -38 -165 -6 -15 11 -32 19
-39 16 -7 -3 -169 -102 -362 -219 l-350 -213 -6 -57 c-10 -89 -50 -135 -126
-145 -72 -9 -153 49 -153 110 0 10 -6 20 -12 22 -7 3 -121 13 -253 23 l-240
18 -55 -25 c-53 -25 -61 -26 -255 -26 -110 0 -354 4 -543 9 l-343 9 -27 -26
c-75 -72 -208 -77 -303 -11 -39 26 -39 26 -186 21 l-148 -5 -259 -84 -259 -85
-17 -51 c-9 -28 -22 -58 -29 -66 -18 -21 -75 -46 -108 -46 -28 0 -29 -2 -302
-695 l-273 -695 35 -39 c43 -48 61 -99 55 -160 -7 -66 -35 -119 -81 -149 -34
-23 -51 -27 -112 -27 -61 0 -78 4 -112 27 -70 46 -103 161 -69 242 l16 39 -57
61 c-32 34 -188 196 -347 361 -301 312 -468 493 -603 655 -60 73 -163 204
-178 228 -1 1 -16 -5 -34 -14 -39 -19 -141 -22 -186 -4 -99 38 -155 119 -155
225 0 91 23 147 82 200 28 25 54 45 58 45 5 0 2 24 -6 53 -34 126 -63 345 -95
724 l-12 142 -46 23 c-27 14 -53 37 -64 56 -24 41 -25 117 -3 161 20 37 70 71
106 71 25 0 28 8 128 368 56 202 102 372 102 379 0 7 -9 17 -20 23 -11 6 -32
32 -47 58 -58 99 -25 235 70 284 52 27 138 29 185 4 28 -14 36 -15 50 -4 9 7
93 78 187 158 225 193 290 244 421 330 92 61 108 76 106 95 -5 36 17 107 44
143 36 46 79 65 149 66 62 0 94 -12 132 -46 l22 -20 277 153 c359 197 624 322
770 364 15 4 25 19 32 48 7 24 24 55 42 72 28 27 38 30 97 30 64 0 66 -1 102
-41 l36 -41 105 9 c106 10 365 5 630 -12 276 -17 264 -18 271 16 20 99 114
176 221 183 9 1 40 -4 67 -10z"/>
<path d="M3113 6143 l-63 -4 -26 -54 c-16 -34 -23 -63 -19 -75 4 -12 41 -96
84 -188 43 -92 86 -191 96 -220 17 -46 22 -52 42 -47 12 3 42 -2 67 -10 l45
-16 353 257 c194 141 354 257 355 258 1 1 -2 19 -8 39 -9 33 -14 37 -42 37
-18 0 -131 7 -252 15 -201 13 -475 17 -632 8z"/>
<path d="M2635 6026 c-170 -66 -285 -123 -607 -299 l-297 -162 111 -7 c62 -4
178 -16 258 -27 244 -34 303 -40 655 -62 254 -16 340 -18 343 -9 2 6 14 23 26
37 l23 26 -73 161 c-140 312 -143 318 -160 312 -27 -11 -96 14 -125 45 -15 16
-31 29 -36 29 -4 -1 -57 -20 -118 -44z"/>
<path d="M4487 6038 c-18 -42 -72 -97 -113 -114 -26 -11 -30 -18 -27 -41 2
-15 21 -161 42 -323 22 -162 52 -398 66 -525 30 -268 31 -275 48 -275 7 0 66
48 131 108 l119 107 288 464 c255 410 287 466 275 480 -8 9 -19 27 -24 41 -10
25 -15 26 -143 39 -149 14 -541 58 -606 67 -40 6 -42 5 -56 -28z"/>
<path d="M3735 5725 c-200 -146 -350 -262 -349 -270 0 -8 1 -31 2 -51 l2 -36
370 4 369 3 13 -23 c16 -31 15 -86 -2 -108 -25 -29 -71 -42 -180 -49 l-106 -7
-38 -70 c-21 -39 -34 -74 -30 -78 5 -5 121 -89 259 -188 l249 -180 40 34 c22
19 50 37 62 40 19 5 22 11 18 37 -2 18 -16 156 -30 307 -32 353 -78 716 -100
793 -3 10 -15 17 -28 17 -39 0 -112 30 -136 56 -13 13 -26 24 -30 24 -3 0
-163 -115 -355 -255z"/>
<path d="M5520 5908 c1 -1 33 -109 73 -238 l73 -235 64 5 c36 3 145 5 242 5
97 0 176 1 175 1 -42 35 -627 466 -627 462z"/>
<path d="M5255 5648 c-77 -123 -190 -300 -252 -395 -61 -95 -111 -173 -109
-173 1 0 46 29 100 65 168 110 423 229 539 250 21 4 41 13 43 19 2 6 -27 110
-64 231 -63 203 -71 220 -93 223 -21 2 -40 -22 -164 -220z"/>
<path d="M1758 5473 c-25 -3 -38 -9 -38 -19 0 -8 -6 -27 -14 -42 -14 -27 -13
-29 121 -177 74 -83 204 -234 290 -336 l155 -187 46 15 c62 19 141 11 197 -20
l43 -25 25 27 c13 14 62 73 108 131 46 58 129 154 184 213 55 60 107 118 115
130 l15 20 -252 -7 c-222 -6 -253 -5 -267 10 -35 34 -11 135 40 168 25 17 45
19 238 14 l211 -5 -235 28 c-430 52 -523 60 -735 63 -115 2 -227 2 -247 -1z"/>
<path d="M1274 5312 c-125 -79 -207 -141 -428 -326 -125 -104 -190 -165 -188
-175 2 -9 6 -28 9 -43 4 -21 12 -29 37 -33 25 -4 1434 -185 1442 -185 2 0 12
19 22 43 10 23 26 48 35 56 10 7 17 19 17 25 0 26 -149 202 -397 468 l-175
188 -31 -17 c-66 -34 -174 -16 -221 36 -11 12 -22 21 -25 20 -3 0 -47 -26 -97
-57z"/>
<path d="M5990 5259 c-104 -17 -240 -66 -240 -85 0 -8 50 -174 110 -370 61
-195 110 -361 110 -369 0 -8 16 -15 43 -18 23 -2 52 -8 64 -12 18 -6 26 0 50
37 68 104 211 286 326 413 l55 60 -20 39 c-26 50 -34 141 -19 202 9 34 9 50 1
58 -8 8 -14 6 -21 -6 -14 -25 -47 -22 -133 12 -122 49 -203 59 -326 39z"/>
<path d="M3031 5117 c-41 -45 -157 -171 -258 -280 -131 -140 -182 -201 -175
-210 31 -39 44 -173 23 -230 -10 -25 -7 -29 55 -73 55 -40 68 -45 79 -33 18
19 155 257 305 528 163 295 181 350 123 372 -56 21 -75 12 -152 -74z"/>
<path d="M5534 5061 c-66 -43 -164 -116 -219 -162 -134 -111 -441 -417 -429
-427 7 -7 778 -152 894 -169 20 -3 28 3 41 29 9 18 29 42 46 54 l30 20 -84
270 c-46 148 -97 313 -114 367 -16 53 -34 97 -38 97 -5 0 -62 -36 -127 -79z"/>
<path d="M3635 4783 c-60 -108 -136 -242 -169 -297 l-59 -100 32 -235 c17
-130 31 -252 31 -271 0 -33 3 -37 40 -47 23 -6 43 -7 46 -1 15 23 213 191 330
279 106 80 151 122 242 229 92 107 112 136 112 163 0 17 4 49 9 70 l9 38 -91
67 c-246 181 -412 301 -417 302 -3 0 -54 -89 -115 -197z"/>
<path d="M6457 4748 c-52 -68 -144 -185 -205 -262 l-109 -138 16 -32 c22 -43
21 -151 -2 -194 l-18 -33 179 -252 c98 -139 211 -300 251 -359 39 -60 78 -108
86 -108 13 0 15 34 15 228 0 125 7 331 15 457 24 367 36 673 29 726 -7 49 -7
49 -43 49 -20 0 -54 9 -76 20 -22 11 -40 20 -41 20 -2 0 -45 -55 -97 -122z"/>
<path d="M657 4643 c-10 -22 -6 -28 39 -67 27 -24 247 -224 488 -443 l440
-400 45 20 c34 15 58 18 103 14 l58 -5 189 268 190 269 -29 53 c-16 29 -30 64
-30 78 0 14 -4 30 -8 36 -7 11 -422 69 -1062 149 -201 25 -375 47 -388 49 -17
3 -27 -3 -35 -21z"/>
<path d="M578 4548 c-15 -12 -1 -63 134 -510 149 -489 152 -498 177 -498 55 0
107 -23 150 -67 l45 -44 225 62 c124 33 230 65 235 69 7 7 19 51 29 107 2 12
-959 893 -973 893 -3 0 -13 -6 -22 -12z"/>
<path d="M444 4496 c-3 -17 -31 -116 -61 -221 -31 -104 -75 -259 -98 -342
l-42 -153 22 -14 c29 -19 55 -75 55 -118 l0 -34 128 -51 c70 -28 161 -66 202
-83 l75 -32 39 37 39 36 -137 447 c-74 246 -142 470 -151 498 -12 41 -20 53
-40 56 -20 4 -25 0 -31 -26z"/>
<path d="M4764 4351 c-22 -25 -69 -81 -104 -124 l-63 -77 37 -143 c20 -78 57
-213 83 -299 41 -140 49 -158 68 -158 11 0 37 -8 58 -19 33 -17 38 -17 49 -3
12 14 212 148 453 303 176 113 446 301 451 314 3 7 1 28 -3 46 l-9 34 -465 87
c-255 48 -475 87 -489 86 -17 0 -38 -15 -66 -47z"/>
<path d="M2536 4280 c-55 -41 -133 -56 -206 -38 l-57 14 -191 -267 -190 -266
26 -56 c25 -52 29 -56 62 -56 40 -1 253 16 318 25 l43 5 122 187 c68 103 149
229 181 280 l59 93 -24 17 c-13 9 -42 33 -64 53 l-40 37 -39 -28z"/>
<path d="M3258 4135 c-49 -79 -88 -148 -88 -153 0 -5 45 -46 100 -91 85 -69
103 -80 119 -71 15 8 19 17 15 43 -3 17 -18 119 -32 224 l-27 193 -87 -145z"/>
<path d="M4394 3884 c-261 -340 -239 -307 -212 -315 400 -112 442 -122 453
-103 5 10 21 29 34 43 l25 25 -70 280 -70 279 -160 -209z"/>
<path d="M5378 3763 l-463 -317 -1 -60 -2 -61 348 -287 348 -286 45 16 c44 16
46 18 52 67 3 27 51 308 106 623 55 316 99 575 97 576 -2 0 -17 11 -35 23
l-31 22 -464 -316z"/>
<path d="M6028 4028 c-21 -5 -39 -17 -42 -26 -5 -18 -216 -1219 -216 -1231 0
-4 11 -13 23 -20 22 -12 51 4 387 208 l363 221 3 50 c1 28 10 62 19 76 16 24
14 28 -153 262 -93 130 -204 288 -248 351 -43 63 -83 115 -89 117 -5 1 -27 -3
-47 -8z"/>
<path d="M3046 3799 c-37 -56 -66 -103 -64 -105 2 -2 80 0 173 4 l169 7 6 26
c7 23 1 30 -69 75 -42 28 -92 60 -112 72 l-36 22 -67 -101z"/>
<path d="M3674 3810 c-66 -55 -70 -61 -66 -91 l5 -33 26 31 c28 34 113 153
109 153 -2 -1 -35 -27 -74 -60z"/>
<path d="M3037 3630 c-54 -4 -99 -9 -101 -11 -2 -2 -54 -78 -116 -169 -62 -91
-121 -176 -132 -189 -10 -14 -15 -28 -11 -32 18 -16 458 -188 465 -181 4 4 86
113 182 242 l174 235 -44 7 c-54 8 -97 38 -114 78 l-12 30 -97 -1 c-53 -1
-140 -5 -194 -9z"/>
<path d="M2175 3550 c-38 -4 -107 -8 -152 -9 -46 0 -83 -5 -83 -9 0 -13 237
-105 249 -98 6 4 29 34 51 67 33 47 37 59 23 57 -10 0 -49 -4 -88 -8z"/>
<path d="M258 3515 l-37 -32 19 -229 c11 -126 27 -279 35 -340 14 -111 52
-310 61 -326 3 -4 22 -8 42 -8 62 0 112 -20 158 -62 28 -26 44 -35 44 -25 0
25 28 40 74 39 29 -1 82 -17 151 -47 120 -51 193 -63 276 -46 71 15 169 51
169 63 0 5 -67 149 -149 321 l-149 312 -39 3 c-76 5 -104 14 -139 44 -46 40
-62 74 -70 142 l-7 55 -76 32 c-42 18 -132 56 -201 84 l-126 52 -36 -32z"/>
<path d="M4065 3451 c-27 -36 -107 -147 -178 -245 l-128 -179 33 -14 c18 -8
47 -27 64 -44 l30 -29 355 198 c195 109 362 202 371 208 10 6 14 14 9 22 -4 7
-99 37 -212 68 -112 30 -224 61 -249 68 l-45 13 -50 -66z"/>
<path d="M1360 3434 c-107 -30 -212 -59 -232 -65 -35 -9 -38 -13 -38 -45 0
-42 -23 -101 -52 -132 l-22 -22 20 -43 c11 -23 79 -165 150 -314 71 -150 134
-273 140 -273 16 0 159 104 234 171 l66 58 27 238 c15 131 30 267 33 303 l6
65 -38 20 c-21 11 -49 36 -62 55 -13 19 -26 36 -30 37 -4 0 -95 -23 -202 -53z"/>
<path d="M1907 3442 c-3 -4 25 -55 62 -111 l69 -103 46 60 c25 33 46 64 46 69
0 4 -42 25 -93 45 -125 51 -124 51 -130 40z"/>
<path d="M1795 3376 l-41 -9 -23 -226 c-13 -124 -25 -242 -28 -261 -4 -35 -3
-34 79 51 46 47 111 120 145 161 l62 75 -75 108 c-40 59 -75 109 -76 109 -2 1
-21 -3 -43 -8z"/>
<path d="M4415 3154 c-126 -68 -291 -156 -366 -195 l-135 -71 10 -51 11 -50
280 6 c563 12 822 59 949 169 l37 33 -152 125 c-200 164 -181 153 -216 135
-39 -21 -91 -19 -136 5 -20 11 -40 20 -44 19 -5 0 -111 -56 -238 -125z"/>
<path d="M2541 3065 c-40 -53 -106 -132 -146 -177 l-72 -83 81 -121 c79 -119
82 -122 112 -117 45 7 100 -14 127 -48 l24 -30 134 45 134 45 -90 -1 c-123 -2
-160 22 -136 85 15 38 48 65 105 83 28 9 69 29 91 44 44 30 175 163 175 177 0
6 -444 193 -460 193 -3 0 -38 -43 -79 -95z"/>
<path d="M5251 2855 c-18 -36 -53 -88 -78 -115 -43 -48 -43 -49 -21 -55 67
-14 259 -35 333 -35 121 0 117 11 -54 154 -76 64 -141 116 -142 116 -2 0 -19
-29 -38 -65z"/>
<path d="M2210 2693 c-132 -134 -311 -266 -472 -348 l-96 -49 -6 -51 c-3 -27
-8 -77 -12 -110 l-6 -60 35 -18 34 -18 345 172 346 173 6 46 c3 25 13 56 22
68 8 12 12 28 8 35 -20 36 -140 217 -144 217 -3 -1 -30 -26 -60 -57z"/>
<path d="M617 2313 c-3 -16 -2 -31 1 -35 13 -12 438 -145 552 -172 63 -15 155
-39 204 -52 49 -14 91 -22 94 -19 6 5 -67 173 -77 180 -4 2 -56 -1 -116 -7
-216 -21 -472 25 -607 109 -21 13 -39 23 -42 23 -2 0 -6 -12 -9 -27z"/>
<path d="M2064 2147 l-342 -171 -4 -58 c-3 -40 -11 -68 -27 -89 -22 -29 -22
-35 -12 -88 6 -31 20 -125 31 -208 10 -84 42 -248 69 -365 27 -117 52 -228 56
-246 6 -28 11 -33 33 -30 24 3 40 40 300 697 263 668 273 695 255 712 -17 16
-33 10 -359 -154z"/>
<path d="M1513 2253 c-24 -8 -43 -20 -43 -26 1 -7 16 -41 34 -77 l34 -65 10
55 c21 106 24 130 16 129 -5 0 -28 -7 -51 -16z"/>
<path d="M576 2185 c-9 -13 -16 -27 -16 -30 0 -7 1157 -1278 1175 -1290 10 -6
18 -6 26 2 9 9 -2 72 -44 265 -44 198 -117 591 -117 629 0 4 -18 9 -40 12 -77
10 -120 60 -125 146 -4 54 13 47 -300 131 -121 32 -287 82 -370 110 -82 27
-155 50 -161 50 -6 0 -19 -11 -28 -25z"/>
</g>
</svg>
